<svg width="14" height="14" viewBox="0 0 14 14" fill="none" xmlns="http://www.w3.org/2000/svg">
<path d="M8.46858 14H8.49983C8.65427 14.0009 8.80542 13.9552 8.9336 13.8691C9.06178 13.7829 9.16108 13.6602 9.21858 13.5168L9.19666 13.5085L9.19674 13.5083C9.14098 13.6472 9.04474 13.7661 8.92052 13.8496C8.79624 13.9332 8.64971 13.9774 8.49996 13.9765H8.49983H8.4691M8.46858 14L8.46963 13.9766C8.46945 13.9765 8.46928 13.9765 8.4691 13.9765M8.46858 14V13.9765H8.4691M8.46858 14L8.4691 13.9765M8.4691 13.9765C8.17379 13.963 7.92874 13.7657 7.83168 13.4845L7.83151 13.4841C7.82949 13.4786 7.82777 13.4734 7.82603 13.4676L7.82617 13.4676L7.82513 13.4651L5.99283 9.17321C5.96895 9.09379 5.9662 9.00952 5.98487 8.92871C6.00363 8.8475 6.04336 8.77263 6.1001 8.71158L8.4691 13.9765ZM13.7645 0.236822C13.8636 0.336291 13.9317 0.462336 13.9607 0.599713C13.9896 0.73709 13.9781 0.879915 13.9276 1.01091L13.9276 1.01105L9.19683 13.5081L6.10012 8.71155L12.5164 1.82904C12.5165 1.82894 12.5166 1.82885 12.5167 1.82875C12.5393 1.80611 12.5572 1.77928 12.5694 1.74975C12.5817 1.7201 12.588 1.68832 12.588 1.65622C12.588 1.62412 12.5817 1.59234 12.5694 1.56269C12.5571 1.53304 12.5391 1.50609 12.5164 1.4834C12.4937 1.4607 12.4668 1.4427 12.4371 1.43042C12.4075 1.41813 12.3757 1.41181 12.3436 1.41181C12.3115 1.41181 12.2797 1.41813 12.25 1.43042C12.2205 1.44264 12.1937 1.46054 12.1711 1.4831C12.171 1.4832 12.1709 1.4833 12.1708 1.4834L5.28512 7.89936C5.22406 7.95611 5.14918 7.99585 5.06797 8.01461C4.98716 8.03328 4.90288 8.03054 4.82347 8.00666L0.534033 6.17498L0.534076 6.17488L0.531912 6.17419L0.519453 6.17024C0.519391 6.17022 0.519329 6.1702 0.519268 6.17018C0.377472 6.12269 0.25378 6.03261 0.165074 5.91222C0.0763296 5.79178 0.0269276 5.64688 0.0236156 5.49731C0.0203037 5.34774 0.0632432 5.2008 0.14657 5.07655C0.228717 4.95406 0.346169 4.85951 0.483266 4.8054V4.80628L0.491562 4.80314L12.9925 0.0715766L12.9925 0.0715634C13.1235 0.021774 13.266 0.0108869 13.4029 0.0402126C13.5399 0.0695349 13.6654 0.137811 13.7645 0.236822ZM13.7645 0.236822C13.7645 0.236833 13.7645 0.236845 13.7645 0.236856L13.7811 0.220282L13.7645 0.236822Z" fill="black" stroke="#112211" stroke-width="0.046875"/>
</svg>
